{"title":"The Rolling Stones at Fort Worth [1978] Some Girls Tour","uid":8145304,"size":3908646033,"categoryP":"video","categoryS":"music_videos","magnet":"?xt=urn:btih:b7fce16b588881ee8b213bc88c7081cc6bbfd084&amp;dn=The+Rolling+Stones+at+Fort+Worth+%5B1978%5D+Some+Girls+Tour&amp;tr=udp%3A%2F%2Ftracker.openbittorrent.com%3A80&amp;tr=udp%3A%2F%2Fopen.demonii.com%3A1337&amp;tr=udp%3A%2F%2Ftracker.coppersurfer.tk%3A6969&amp;tr=udp%3A%2F%2Fexodus.desync.com%3A6969","seeders":1,"leechers":0,"uploader":"Ehhhhtozebec","files":-1,"time":1360902997,"description":"The Rolling Stones Some Girls tour is widely believed to be one of the bands' greatest concerts, largely because it was in many ways back to basics both in musical and staging terms--a return to classic Stones numbers mixed with blues numbers and Chuck Berry covers, as well as including a large number of songs from the newly released Some Girls LP. \n\n    Tracks\n\n    Let It Rock\n    All Down The Line\n    Honky Tonk Women\n    Star Star\n    When The Whip Comes Down\n    Beast of Burden\n    Miss You\n    Imagination\n    Shattered\n    Respectable\n    Far Away Eyes\n    Love in Vain\n    Tumbling Dice\n    Happy\n    Sweet Little Sixteen\n    Brown Sugar\n    Jumpin' Jack Flash\n\nFormat                                   : MPEG-4\nFormat profile                           : Base Media\nCodec ID                                 : isom\nFile size                                : 3.64 GiB\nDuration                                 : 1h 25mn\nOverall bit rate                         : 6 118 Kbps\nWriting application                      : Lavf52.31.0\n\nVideo\nID                                       : 1\nFormat                                   : AVC\nFormat/Info                              : Advanced Video Codec\nFormat profile                           : &lt;a class=&quot;__cf_email__&quot; href=&quot;/cdn-cgi/l/email-protection&quot; data-cfemail=&quot;246c4d434c6468100a14&quot;&gt;[email&amp;#160;protected]&lt;/a&gt;&lt;script cf-hash='f9e31' type=&quot;text/javascript&quot;&gt;\n/* &lt;![CDATA[ */!function(){try{var t=&quot;currentScript&quot;in document?document.currentScript:function(){for(var t=document.getElementsByTagName(&quot;script&quot;),e=t.length;e--;)if(t[e].getAttribute(&quot;cf-hash&quot;))return t[e]}();if(t&amp;&amp;t.previousSibling){var e,r,n,i,c=t.previousSibling,a=c.getAttribute(&quot;data-cfemail&quot;);if(a){for(e=&quot;&quot;,r=parseInt(a.substr(0,2),16),n=2;a.length-n;n+=2)i=parseInt(a.substr(n,2),16)^r,e+=String.fromCharCode(i);e=document.createTextNode(e),c.parentNode.replaceChild(e,c)}}}catch(u){}}();/* ]]&gt; */&lt;/script&gt;\nFormat settings, CABAC                   : Yes\nFormat settings, ReFrames                : 4 frames\nCodec ID                                 : avc1\nCodec ID/Info                            : Advanced Video Coding\nDuration                                 : 1h 25mn\nBit rate                                 : 5 948 Kbps\nWidth                                    : 1 920 pixels\nHeight                                   : 1 080 pixels\nDisplay aspect ratio                     : 16:9\nFrame rate mode                          : Constant\nFrame rate                               : 29.970 fps\nColor space                              : YUV\nChroma subsampling                       : 4:2:0\nBit depth                                : 8 bits\nScan type                                : Progressive\nBits/(Pixel*Frame)                       : 0.096\nStream size                              : 3.54 GiB (97%)\n\nAudio\nID                                       : 2\nFormat                                   : AAC\nFormat/Info                              : Advanced Audio Codec\nFormat profile                           : LC\nCodec ID                                 : 40\nDuration                                 : 1h 25mn\nBit rate mode                            : Constant\nBit rate                                 : 165 Kbps\nNominal bit rate                         : 320 Kbps\nChannel(s)                               : 2 channels\nChannel positions                        : Front: L R\nSampling rate                            : 48.0 KHz\nCompression mode                         : Lossy\nStream size                              : 101 MiB (3%)\n","torrent":{"xt":"urn:btih:b7fce16b588881ee8b213bc88c7081cc6bbfd084","amp;dn":"The+Rolling+Stones+at+Fort+Worth+%5B1978%5D+Some+Girls+Tour","amp;tr":["udp%3A%2F%2Ftracker.openbittorrent.com%3A80","udp%3A%2F%2Fopen.demonii.com%3A1337","udp%3A%2F%2Ftracker.coppersurfer.tk%3A6969","udp%3A%2F%2Fexodus.desync.com%3A6969"],"infoHash":"b7fce16b588881ee8b213bc88c7081cc6bbfd084","infoHashBuffer":{"type":"Buffer","data":[183,252,225,107,88,136,129,238,139,33,59,200,140,112,129,204,107,191,208,132]},"announce":[],"urlList":[]}}